<?xml version="1.0" encoding="utf-8"?>
<!-- Generator: Adobe Illustrator 24.1.1, SVG Export Plug-In . SVG Version: 6.00 Build 0)  -->
<svg version="1.1" id="Layer_1" xmlns="http://www.w3.org/2000/svg" xmlns:xlink="http://www.w3.org/1999/xlink" x="0px" y="0px"
	 viewBox="0 0 512 512" style="enable-background:new 0 0 512 512;" xml:space="preserve">
<style type="text/css">
	.st0{fill-rule:evenodd;clip-rule:evenodd;}
</style>
<g>
	<path style="fill:#FFFFFF" class="st0" d="M0,96c0-35.4,28.6-64,64-64h384c35.4,0,64,28.6,64,64v320c0,35.4-28.6,64-64,64H64c-35.4,0-64-28.6-64-64V96z
		 M304,272h-96c-8.8,0-16,7.2-16,16s7.2,16,16,16h96c8.8,0,16-7.2,16-16S312.8,272,304,272z M100.7,260.7l52.7-52.7l-52.7-52.7
		c-6.3-6.3-6.3-16.4,0-22.7c6.3-6.3,16.4-6.3,22.7,0l64,64c6.3,6.3,6.3,16.4,0,22.6l0,0l-64,64c-6.3,6.3-16.4,6.3-22.7,0
		C94.4,277.1,94.4,266.9,100.7,260.7z"/>
</g>
</svg>
